<?xml version="1.0" standalone="no"?>
<!DOCTYPE svg PUBLIC "-//W3C//DTD SVG 20010904//EN"
 "http://www.w3.org/TR/2001/REC-SVG-20010904/DTD/svg10.dtd">
<svg version="1.0" xmlns="http://www.w3.org/2000/svg"
 width="2628.000000pt" height="2179.000000pt" viewBox="0 0 2628.000000 2179.000000"
 preserveAspectRatio="xMidYMid meet" style="width:20px; height:20px;">
<metadata>
Created by potrace 1.15, written by Peter Selinger 2001-2017
</metadata>
<g transform="translate(0.000000,2179.000000) scale(0.100000,-0.100000)"
fill="#ffffff" stroke="none">
<path d="M2446 21578 c-7 -234 -217 -15851 -216 -16094 l0 -151 96 23 c1072
259 3017 27 5639 -673 1049 -279 2361 -685 3373 -1043 128 -45 236 -80 239
-76 17 17 -274 315 -449 460 -680 563 -1746 1135 -3229 1731 -1096 441 -2550
931 -3832 1291 l-277 78 0 100 c0 153 -208 13916 -216 14264 l-6 302 -558 0
-558 0 -6 -212z"/>
<path d="M22706 21488 c-8 -348 -216 -14111 -216 -14264 l0 -100 -277 -78
c-1281 -360 -2736 -850 -3832 -1291 -1482 -596 -2549 -1168 -3229 -1731 -175
-145 -466 -443 -449 -460 3 -4 111 31 239 76 552 196 1501 503 2143 695 3220
961 5632 1320 6869 1021 l96 -23 0 151 c1 242 -209 15859 -216 16094 l-6 212
-558 0 -558 0 -6 -302z"/>
<path d="M0 10895 l0 -8225 5347 0 c2940 0 5344 2 5342 4 -2 2 -806 254 -1787
560 l-1783 556 -2999 0 -3000 0 0 7665 0 7665 -560 0 -560 0 0 -8225z"/>
<path d="M25160 11455 l0 -7665 -3000 0 -2999 0 -1783 -556 c-981 -306 -1785
-558 -1787 -560 -2 -2 2402 -4 5342 -4 l5347 0 0 8225 0 8225 -560 0 -560 0 0
-7665z"/>
<path d="M17060 16869 c-1292 -76 -2345 -423 -3185 -1049 -578 -430 -1056
-999 -1352 -1610 -224 -463 -408 -1125 -480 -1725 -22 -184 -25 -794 -5 -1000
48 -500 130 -911 258 -1290 501 -1490 1706 -2579 3389 -3060 714 -204 1436
-295 2350 -295 961 0 1674 83 2163 251 200 69 297 135 373 252 88 136 173 512
279 1230 69 474 86 684 59 754 -25 66 -85 96 -152 74 -66 -22 -82 -53 -123
-240 -81 -375 -267 -702 -560 -981 -404 -386 -864 -534 -1805 -581 -270 -13
-622 -7 -788 15 -789 105 -1587 495 -2289 1119 -609 542 -1089 1451 -1266
2397 -96 510 -117 1098 -61 1700 82 871 323 1586 725 2147 641 896 1641 1311
3040 1262 519 -18 966 -94 1400 -239 678 -226 1063 -526 1300 -1015 105 -216
151 -400 174 -692 16 -211 32 -262 90 -290 30 -14 41 -15 75 -4 46 13 71 44
95 114 35 105 42 212 56 989 9 486 26 792 56 1053 27 231 27 256 7 295 -28 53
-84 75 -258 100 -82 11 -269 44 -415 71 -653 124 -1052 178 -1670 224 -468 34
-1122 45 -1480 24z"/>
<path d="M6167 16689 c-84 -20 -117 -50 -117 -109 0 -47 17 -70 68 -92 38 -17
78 -22 242 -29 350 -15 568 -78 695 -204 62 -62 96 -125 129 -239 71 -245 75
-452 76 -3821 0 -3693 -10 -4078 -121 -4479 -66 -240 -167 -374 -309 -408 -98
-23 -233 -39 -393 -48 -138 -7 -186 -13 -215 -27 -82 -40 -78 -135 8 -183 45
-25 48 -25 280 -25 129 0 447 6 705 14 559 16 1611 10 2190 -13 938 -37 2621
-54 2796 -28 134 19 181 37 238 88 118 106 173 310 251 929 67 538 87 839 61
924 -17 55 -48 81 -97 81 -86 0 -123 -59 -149 -240 -34 -227 -100 -405 -217
-577 -104 -155 -234 -268 -399 -348 -158 -76 -343 -112 -703 -136 -234 -16
-1003 -6 -1193 15 -365 40 -568 90 -745 183 -238 125 -311 364 -348 1128 -24
494 -32 1783 -26 3875 7 2175 14 2711 40 2906 37 279 102 422 233 509 118 80
276 111 623 124 279 11 330 30 330 121 0 45 -15 67 -63 92 -40 22 -55 23 -282
26 -132 2 -496 -4 -810 -12 -700 -20 -1039 -20 -1670 -1 -539 16 -1049 18
-1108 4z"/>
<path d="M16416 13799 c-20 -17 -40 -47 -46 -67 -5 -20 -10 -129 -10 -242 0
-113 5 -222 10 -242 13 -45 68 -95 115 -104 46 -8 104 17 136 60 23 30 24 37
27 273 3 213 1 247 -14 279 -24 50 -67 74 -131 74 -44 0 -58 -5 -87 -31z"/>
<path d="M17259 13536 c-24 -8 -82 -59 -171 -147 -204 -202 -218 -220 -218
-279 0 -41 5 -55 30 -84 37 -42 88 -61 138 -51 31 5 66 35 204 173 92 91 174
180 183 198 52 110 -53 230 -166 190z"/>
<path d="M15613 13460 c-58 -35 -81 -118 -49 -178 17 -32 332 -345 363 -361
102 -52 234 80 182 182 -16 31 -329 346 -361 363 -38 20 -97 17 -135 -6z"/>
<path d="M16252 12830 c-18 -11 -41 -34 -52 -52 -36 -59 -39 -47 130 -473 26
-66 75 -190 110 -275 34 -85 113 -285 177 -445 63 -159 125 -315 138 -345 13
-30 48 -118 78 -195 89 -229 176 -447 197 -495 11 -25 51 -125 90 -223 77
-197 90 -219 137 -242 84 -41 141 -9 218 123 107 182 163 277 222 380 l59 102
385 -385 c211 -212 398 -395 415 -405 45 -28 121 -27 160 3 46 35 411 402 423
425 6 11 11 43 11 70 0 38 -6 57 -29 88 -16 21 -198 207 -405 413 l-376 375
103 59 c102 59 197 115 379 222 134 78 166 138 120 224 -26 49 -35 53 -537
251 -126 50 -250 99 -275 110 -25 10 -290 116 -590 235 -300 119 -560 222
-578 231 -19 8 -75 31 -125 50 -51 20 -123 49 -162 64 -360 144 -365 145 -423
110z"/>
<path d="M15294 12659 c-18 -5 -46 -25 -63 -44 -26 -30 -31 -44 -31 -86 0 -67
22 -106 73 -130 37 -16 68 -19 266 -19 208 0 228 2 268 21 76 37 104 125 61
189 -51 74 -53 75 -311 77 -128 1 -246 -2 -263 -8z"/>
<path d="M15823 12119 c-26 -23 -110 -104 -185 -181 -97 -98 -140 -150 -147
-174 -24 -87 46 -174 142 -174 47 0 86 31 264 212 123 125 153 161 158 190 10
50 -9 101 -51 138 -29 25 -43 30 -84 30 -43 0 -55 -5 -97 -41z"/>
<path d="M11168 1346 c-2104 -6 -3828 -13 -3831 -16 -2 -3 -102 -151 -221
-330 l-216 -325 0 -337 0 -338 948 0 c736 1 11289 37 11300 39 1 1 2 154 2
341 l0 340 -240 320 -240 320 -1838 -2 c-1010 -1 -3559 -6 -5664 -12z"/>
</g>
</svg>
